<mxfile host="app.diagrams.net" modified="2024-02-29T11:19:23.140Z" agent="Mozilla/5.0 (Windows NT 10.0; Win64; x64) AppleWebKit/537.36 (KHTML, like Gecko) Chrome/122.0.0.0 Safari/537.36" version="23.1.8" etag="j9qi2PvAoBeFZOkSvDoe" type="github">
  <diagram name="PÃ¡gina-1" id="d2Wdh0Yjv7PMlDOLi64A">
    <mxGraphModel>
      <root>
        <mxCell id="0" />
        <mxCell id="1" parent="0" />
      </root>
    </mxGraphModel>
  </diagram>
</mxfile>
